<svg width="332" height="323" viewBox="0 0 332 323" fill="none" xmlns="http://www.w3.org/2000/svg">
<rect x="0.5" y="0.5" width="331" height="322" rx="15.5" fill="#60584C" stroke="black"/>
<path d="M314 2C322.284 2 329 8.71573 329 17V18H314V2Z" fill="#BBB5A2"/>
<path d="M314 305H329V308C329 314.075 324.075 319 318 319H314V305Z" fill="#BBB5A2"/>
<path d="M3 15C3 8.92487 7.92487 4 14 4H18V18H3V15Z" fill="#BBB5A2"/>
<path d="M3 305H18V319H14C7.92487 319 3 314.075 3 308V305Z" fill="#BBB5A2"/>
<rect x="2.5" y="2.5" width="327" height="318" rx="13.5" stroke="#E3E9EE" stroke-width="3"/>
<rect x="4.5" y="4.5" width="323" height="314" rx="11.5" stroke="black"/>
<rect x="164.5" y="221.5" width="3" height="100" fill="#E3E9EE" stroke="black"/>
<rect x="164.5" y="1.5" width="3" height="100" fill="#E3E9EE" stroke="black"/>
<circle cx="165.5" cy="161.5" r="65" fill="#E3E9EE"/>
<circle cx="165.5" cy="161.5" r="65" stroke="black"/>
<circle cx="165.5" cy="161.5" r="65" stroke="black"/>
<circle cx="165.5" cy="161.5" r="62" fill="#60584C"/>
<circle cx="165.5" cy="161.5" r="62" stroke="black"/>
<circle cx="165.5" cy="161.5" r="62" stroke="black"/>
<mask id="mask0_208_10033" style="mask-type:alpha" maskUnits="userSpaceOnUse" x="103" y="99" width="125" height="125">
<circle cx="165.5" cy="161.5" r="62" fill="#60584C"/>
<circle cx="165.5" cy="161.5" r="62" stroke="black"/>
<circle cx="165.5" cy="161.5" r="62" stroke="black"/>
</mask>
<g mask="url(#mask0_208_10033)">
<mask id="path-13-inside-1_208_10033" fill="white">
<path d="M164.431 151.629C189.687 151.629 211.01 164.47 217.782 182.058L110.988 182.299C117.658 164.588 139.059 151.629 164.431 151.629Z"/>
</mask>
<path d="M164.431 151.629C189.687 151.629 211.01 164.47 217.782 182.058L110.988 182.299C117.658 164.588 139.059 151.629 164.431 151.629Z" fill="#C8BE89"/>
<path d="M164.431 151.629V150.629H164.431L164.431 151.629ZM217.782 182.058L217.784 183.058L219.238 183.054L218.715 181.698L217.782 182.058ZM110.988 182.299L110.052 181.946L109.542 183.302L110.991 183.299L110.988 182.299ZM164.431 151.629V152.629C189.404 152.629 210.267 165.325 216.849 182.417L217.782 182.058L218.715 181.698C211.752 163.616 189.97 150.629 164.431 150.629V151.629ZM217.782 182.058L217.78 181.058L110.986 181.299L110.988 182.299L110.991 183.299L217.784 183.058L217.782 182.058ZM110.988 182.299L111.924 182.651C118.405 165.441 139.343 152.629 164.431 152.629L164.431 151.629L164.431 150.629C138.775 150.629 116.911 163.735 110.052 181.946L110.988 182.299Z" fill="black" mask="url(#path-13-inside-1_208_10033)"/>
<path d="M164.431 151.629V150.629H164.431L164.431 151.629ZM217.782 182.058L217.784 183.058L219.238 183.054L218.715 181.698L217.782 182.058ZM110.988 182.299L110.052 181.946L109.542 183.302L110.991 183.299L110.988 182.299ZM164.431 151.629V152.629C189.404 152.629 210.267 165.325 216.849 182.417L217.782 182.058L218.715 181.698C211.752 163.616 189.97 150.629 164.431 150.629V151.629ZM217.782 182.058L217.78 181.058L110.986 181.299L110.988 182.299L110.991 183.299L217.784 183.058L217.782 182.058ZM110.988 182.299L111.924 182.651C118.405 165.441 139.343 152.629 164.431 152.629L164.431 151.629L164.431 150.629C138.775 150.629 116.911 163.735 110.052 181.946L110.988 182.299Z" fill="black" mask="url(#path-13-inside-1_208_10033)"/>
<mask id="path-15-inside-2_208_10033" fill="white">
<path d="M164.44 136.34C185.202 136.34 203.305 145.017 212.854 157.875L168.165 206L116.789 156.883C126.518 144.573 144.218 136.34 164.44 136.34Z"/>
</mask>
<path d="M164.44 136.34C185.202 136.34 203.305 145.017 212.854 157.875L168.165 206L116.789 156.883C126.518 144.573 144.218 136.34 164.44 136.34Z" fill="#C8BE89"/>
<path d="M164.44 136.34V135.34H164.44L164.44 136.34ZM212.854 157.875L213.586 158.555L214.152 157.946L213.656 157.279L212.854 157.875ZM168.165 206L167.474 206.723L168.207 207.424L168.898 206.68L168.165 206ZM116.789 156.883L116.005 156.263L115.44 156.977L116.098 157.606L116.789 156.883ZM164.44 136.34V137.34C184.947 137.34 202.725 145.913 212.051 158.471L212.854 157.875L213.656 157.279C203.886 144.121 185.457 135.34 164.44 135.34V136.34ZM212.854 157.875L212.121 157.195L167.432 205.32L168.165 206L168.898 206.68L213.586 158.555L212.854 157.875ZM168.165 206L168.856 205.277L117.48 156.16L116.789 156.883L116.098 157.606L167.474 206.723L168.165 206ZM116.789 156.883L117.574 157.503C127.081 145.474 144.468 137.34 164.44 137.34L164.44 136.34L164.44 135.34C143.968 135.34 125.955 143.673 116.005 156.263L116.789 156.883Z" fill="black" mask="url(#path-15-inside-2_208_10033)"/>
<path d="M164.44 136.34V135.34H164.44L164.44 136.34ZM212.854 157.875L213.586 158.555L214.152 157.946L213.656 157.279L212.854 157.875ZM168.165 206L167.474 206.723L168.207 207.424L168.898 206.68L168.165 206ZM116.789 156.883L116.005 156.263L115.44 156.977L116.098 157.606L116.789 156.883ZM164.44 136.34V137.34C184.947 137.34 202.725 145.913 212.051 158.471L212.854 157.875L213.656 157.279C203.886 144.121 185.457 135.34 164.44 135.34V136.34ZM212.854 157.875L212.121 157.195L167.432 205.32L168.165 206L168.898 206.68L213.586 158.555L212.854 157.875ZM168.165 206L168.856 205.277L117.48 156.16L116.789 156.883L116.098 157.606L167.474 206.723L168.165 206ZM116.789 156.883L117.574 157.503C127.081 145.474 144.468 137.34 164.44 137.34L164.44 136.34L164.44 135.34C143.968 135.34 125.955 143.673 116.005 156.263L116.789 156.883Z" fill="black" mask="url(#path-15-inside-2_208_10033)"/>
<mask id="path-17-inside-3_208_10033" fill="white">
<path d="M164.433 128C178.353 128 191.079 131.901 200.832 138.348L165.126 198.243L128.359 138.138C138.069 131.818 150.666 128 164.433 128Z"/>
</mask>
<path d="M164.433 128C178.353 128 191.079 131.901 200.832 138.348L165.126 198.243L128.359 138.138C138.069 131.818 150.666 128 164.433 128Z" fill="#C8BE89"/>
<path d="M164.433 128V127H164.433L164.433 128ZM200.832 138.348L201.691 138.86L202.18 138.04L201.383 137.513L200.832 138.348ZM165.126 198.243L164.273 198.765L165.137 200.178L165.985 198.755L165.126 198.243ZM128.359 138.138L127.814 137.3L126.999 137.83L127.506 138.66L128.359 138.138ZM164.433 128V129C178.171 129 190.702 132.851 200.281 139.182L200.832 138.348L201.383 137.513C191.456 130.951 178.535 127 164.433 127V128ZM200.832 138.348L199.973 137.836L164.267 197.731L165.126 198.243L165.985 198.755L201.691 138.86L200.832 138.348ZM165.126 198.243L165.979 197.721L129.212 137.616L128.359 138.138L127.506 138.66L164.273 198.765L165.126 198.243ZM128.359 138.138L128.905 138.976C138.442 132.769 150.846 129 164.433 129L164.433 128L164.433 127C150.485 127 137.697 130.867 127.814 137.3L128.359 138.138Z" fill="black" mask="url(#path-17-inside-3_208_10033)"/>
<path d="M164.433 128V127H164.433L164.433 128ZM200.832 138.348L201.691 138.86L202.18 138.04L201.383 137.513L200.832 138.348ZM165.126 198.243L164.273 198.765L165.137 200.178L165.985 198.755L165.126 198.243ZM128.359 138.138L127.814 137.3L126.999 137.83L127.506 138.66L128.359 138.138ZM164.433 128V129C178.171 129 190.702 132.851 200.281 139.182L200.832 138.348L201.383 137.513C191.456 130.951 178.535 127 164.433 127V128ZM200.832 138.348L199.973 137.836L164.267 197.731L165.126 198.243L165.985 198.755L201.691 138.86L200.832 138.348ZM165.126 198.243L165.979 197.721L129.212 137.616L128.359 138.138L127.506 138.66L164.273 198.765L165.126 198.243ZM128.359 138.138L128.905 138.976C138.442 132.769 150.846 129 164.433 129L164.433 128L164.433 127C150.485 127 137.697 130.867 127.814 137.3L128.359 138.138Z" fill="black" mask="url(#path-17-inside-3_208_10033)"/>
<rect x="31" y="182.207" width="269.645" height="13.8992" fill="#C8BE89"/>
<rect x="30.5" y="181.707" width="270.645" height="14.8992" stroke="black" stroke-opacity="0.89"/>
<circle cx="164.433" cy="189.158" r="17.1791" fill="#C8BE89" stroke="black"/>
<circle cx="164.433" cy="189.156" r="8.83955" fill="#C8BE89" stroke="black"/>
</g>
<rect x="165" y="95" width="2" height="3" fill="#E3E9EE"/>
<rect x="165" y="225" width="2" height="4" fill="#E3E9EE"/>
<rect x="163" y="1" width="6" height="3" fill="#E3E9EE"/>
<rect x="163" y="319" width="6" height="3" fill="#E3E9EE"/>
<rect x="16.5" y="305.5" width="3" height="15" fill="#E3E9EE" stroke="black"/>
<rect x="19.5" y="303.5" width="3" height="16" transform="rotate(90 19.5 303.5)" fill="#E3E9EE" stroke="black"/>
<rect x="2" y="302" width="2" height="5" fill="#E3E9EE"/>
<rect x="17" y="304" width="2" height="5" fill="#E3E9EE"/>
<rect x="20" y="319" width="2" height="5" transform="rotate(90 20 319)" fill="#E3E9EE"/>
<rect x="17.5" y="16.5" width="3" height="15" transform="rotate(90 17.5 16.5)" fill="#E3E9EE" stroke="black"/>
<rect x="19.5" y="19.5" width="3" height="16" transform="rotate(180 19.5 19.5)" fill="#E3E9EE" stroke="black"/>
<rect x="21" y="2" width="2" height="5" transform="rotate(90 21 2)" fill="#E3E9EE"/>
<rect x="19" y="17" width="2" height="5" transform="rotate(90 19 17)" fill="#E3E9EE"/>
<rect x="4" y="20" width="2" height="5" transform="rotate(180 4 20)" fill="#E3E9EE"/>
<rect x="315.5" y="17.5" width="3" height="15" transform="rotate(180 315.5 17.5)" fill="#E3E9EE" stroke="black"/>
<rect x="312.5" y="19.5" width="3" height="16" transform="rotate(-90 312.5 19.5)" fill="#E3E9EE" stroke="black"/>
<rect x="330" y="21" width="2" height="5" transform="rotate(180 330 21)" fill="#E3E9EE"/>
<rect x="315" y="19" width="2" height="5" transform="rotate(180 315 19)" fill="#E3E9EE"/>
<rect x="312" y="4" width="2" height="5" transform="rotate(-90 312 4)" fill="#E3E9EE"/>
<rect x="314.5" y="306.5" width="3" height="15" transform="matrix(0 -1 1 0 8 621)" fill="#E3E9EE" stroke="black"/>
<rect x="312.5" y="303.5" width="3" height="16" fill="#E3E9EE" stroke="black"/>
<rect x="311" y="321" width="2" height="5" transform="rotate(-90 311 321)" fill="#E3E9EE"/>
<rect x="313" y="306" width="2" height="5" transform="rotate(-90 313 306)" fill="#E3E9EE"/>
<rect x="328" y="303" width="2" height="5" fill="#E3E9EE"/>
</svg>
